# xmcd CD database file
#
# Track frame offsets:
#	150
#	24687
#	55325
#	77300
#	95787
#	113162
#	128087
#	147937
#	166787
#	178112
#	193075
#	214175
#	255062
#	280162
#	302087
#
# Disc length: 4428 seconds
#
# Revision: 3
# Processed by: cddbd v1.5.1PL0 Copyright (c) Steve Scherf et al.
# Submitted via: CDex 1.51
#
DISCID=cb114a0f
DTITLE=Various Artist - THE BEST OF JAZZ
DYEAR=1992
DGENRE=Jazz
TTITLE0=Take Five - The Dave Brubeck Quartet
TTITLE1=Green Dolphin Street - Bill Evans
TTITLE2=Moanin' - The Art Farmer Quintet
TTITLE3=Misty - Ray Bryant
TTITLE4=Take The 'A' Train - Duke Ellington and Count Basie
TTITLE5=Smoke Gets in Your Eyes - Teddy Wilson
TTITLE6=Don't Be That Way - Benny Goodman
TTITLE7=Stardust - Wynton Marsalis
TTITLE8=Dinah - Thelonious Monk
TTITLE9=Four Brothers - Woody Herman and his Orchestra
TTITLE10=My Funny Valentine - Richie Beirach
TTITLE11=So What - Miles Davis
TTITLE12=Left Alone - Mal Waldron
TTITLE13=St. Thomas - Branford Marsalis
TTITLE14='Round Midnight - Harbie Hancock
EXTD=YEAR: 1992
EXTT0=
EXTT1=
EXTT2=
EXTT3=
EXTT4=
EXTT5=
EXTT6=
EXTT7=
EXTT8=
EXTT9=
EXTT10=
EXTT11=
EXTT12=
EXTT13=
EXTT14=
PLAYORDER=
